# xmcd
#
# Track frame offsets:
#	150
#	17440
#	29448
#	44554
#	55739
#	67960
#	82949
#	95302
#	109190
#	123806
#
# Disc length: 1913 seconds
#
# Revision: 1
# Processed by: cddbd v1.5.2PL0 Copyright (c) Steve Scherf et al.
# Submitted via: audiograbber 1.83.01
#
DISCID=7207770a
DTITLE=Kelly Willis - Back Being Blue
DYEAR=2018
DGENRE=Country
TTITLE0=Back Being Blue
TTITLE1=Only You
TTITLE2=Fool's Paradise
TTITLE3=Modern World
TTITLE4=Freewheeling
TTITLE5=Afternoon's Gone Blind
TTITLE6=What the Heart Doesn't Know
TTITLE7=I'm a Lover (not a Fighter)
TTITLE8=We'll Do It for Love Next Time
TTITLE9=Don't Step Away
EXTD=
EXTT0=
EXTT1=
EXTT2=
EXTT3=
EXTT4=
EXTT5=
EXTT6=
EXTT7=
EXTT8=
EXTT9=
PLAYORDER=
